/* XPM */
static char *_408a120a43d48909cb70a550106e71eKYsOzGGzPscSzXjW[] = {
/* columns rows colors chars-per-pixel */
"50 50 180 2 ",
"   c #031D34",
".  c #051F38",
"X  c #072134",
"o  c #0C2536",
"O  c #0C2837",
"+  c #05223B",
"@  c #0A253C",
"#  c #06293F",
"$  c #0E2A3C",
"%  c #152731",
"&  c #122935",
"*  c #1A2B33",
"=  c #11273C",
"-  c #132C3B",
";  c #1B2D39",
":  c #15313D",
">  c #1A313E",
",  c #062440",
"<  c #0C2742",
"1  c #0E2B43",
"2  c #122D44",
"3  c #182E43",
"4  c #132E49",
"5  c #153145",
"6  c #1B3445",
"7  c #16324B",
"8  c #1A354C",
"9  c #1D394D",
"0  c #163551",
"q  c #1A3552",
"w  c #1D3A53",
"e  c #1E3C59",
"r  c #223748",
"t  c #233C4F",
"y  c #223D54",
"u  c #223F5A",
"i  c #244155",
"p  c #2D4255",
"a  c #25425D",
"s  c #2A455D",
"d  c #2B495D",
"f  c #30465D",
"g  c #264463",
"h  c #2A4763",
"j  c #2D4B64",
"k  c #294668",
"l  c #2E4C69",
"z  c #334D65",
"x  c #334E6A",
"c  c #365066",
"v  c #35536C",
"b  c #3A556C",
"n  c #3E586E",
"m  c #355372",
"M  c #3B5774",
"N  c #3E5A74",
"B  c #35577C",
"V  c #3A5779",
"C  c #3D5C7B",
"Z  c #3E6177",
"A  c #3E617E",
"S  c #425D75",
"D  c #485D70",
"F  c #435E7C",
"G  c #4B5E7F",
"H  c #456176",
"J  c #4A6276",
"K  c #44617D",
"L  c #49647D",
"P  c #45687E",
"I  c #4D697E",
"U  c #51677F",
"Y  c #3D5E82",
"T  c #3E6181",
"R  c #435E81",
"E  c #4B5F80",
"W  c #456282",
"Q  c #4A6482",
"!  c #466986",
"~  c #4D6984",
"^  c #446489",
"/  c #4A6688",
"(  c #47698B",
")  c #4C6B8A",
"_  c #516485",
"`  c #516C84",
"'  c #566688",
"]  c #526E8B",
"[  c #4D708C",
"{  c #557186",
"}  c #54728C",
"|  c #59758D",
" . c #59788D",
".. c #4C6D92",
"X. c #4E7291",
"o. c #547593",
"O. c #5A7594",
"+. c #5D7A96",
"@. c #56789A",
"#. c #5C7C9B",
"$. c #617C95",
"%. c #617D9B",
"&. c #5C7DA0",
"*. c #617EA0",
"=. c #5F809F",
"-. c #648095",
";. c #64839D",
":. c #6A859E",
">. c #5F81A4",
",. c #6684A2",
"<. c #6986A2",
"1. c #6689A7",
"2. c #6C89A6",
"3. c #6686A9",
"4. c #6886AA",
"5. c #6788AB",
"6. c #6E8DAB",
"7. c #708CA2",
"8. c #728EAB",
"9. c #6E90AE",
"0. c #7491AE",
"q. c #7B97AD",
"w. c #7696B3",
"e. c #7592B4",
"r. c #7594B3",
"t. c #7997B1",
"y. c #7897B3",
"u. c #7993B4",
"i. c #7996B4",
"p. c #7799B4",
"a. c #7B9AB4",
"s. c #7595BB",
"d. c #7A97B9",
"f. c #7799BA",
"g. c #7899BA",
"h. c #799AB9",
"j. c #7D9EBA",
"k. c #7C9DBE",
"l. c #7C9BBB",
"z. c #7D9FC2",
"x. c #7B9DC2",
"c. c #7FA2C8",
"v. c #829EB4",
"b. c #809FBC",
"n. c #809DBA",
"m. c #81A0BD",
"M. c #82A1BE",
"N. c #84A2BD",
"B. c #809CC1",
"V. c #83A4C3",
"C. c #87A5C1",
"Z. c #87A4C2",
"A. c #85A4C0",
"S. c #80A2C5",
"D. c #82A4C7",
"F. c #83A6C4",
"G. c #84A3C3",
"H. c #89A7C5",
"J. c #89A6C2",
"K. c #85A8C6",
"L. c #8DABC7",
"P. c #8BA8C5",
"I. c #84A6C9",
"U. c #84A5CA",
"Y. c #88A6C8",
"T. c #84A8C8",
"R. c #86A9C9",
"E. c #87AACA",
"W. c #89AAC9",
"Q. c #8BAAC9",
"!. c #88A9C8",
"~. c #8EACC8",
"^. c #8CAFCD",
"/. c #8CACCB",
"(. c #92ADC5",
"). c #91AECC",
"_. c #91B0CC",
"`. c #93B1CD",
"'. c #95B3D2",
"]. c #9BB6D4",
/* pixels */
"x z c f 9 @ 5 1 w K o.) o.#.1.[ [ [ ..@.#.&.X.[ W T C C H C M v j g a e e e u w 7 4 4 q 1 2 1 q m x ",
"L Q Q H v 5 1 8 o.y.h.K.E.K.c.^.T.T.T.c.E.W.E.T.F.j.r.r.6.6.1.2.0.0.0.0.0.2.,.;.#.%.O.%.L 7 7 ` u.e.",
"F F L J P w 1 j p.).F.r.6.=.#.1.f.c.c.T.S.k.g.d.f.9.,.@.[ ! ^ Q } +.1.0.d.k.m.m.J.H.Z.).p.e 8 1.G.Q.",
"L G F S P 7 2 ~ A.m.2.W A C C C T [ @.>.@...( W T A C C C C A K C Z C Z Z Z F C Q / ] O.;.d j N.B.G.",
"L Q Q F J 1 9 ;.L.,.A W K ) T W B T W ^ R Y Y Y ^ W W W ^ W W W ! A A A A A K T C K A C W s N j.d.9.",
"F F H H J 5 d +.2.W M ! ! W A W W W R R R R W ^ R Y Y R W R R R P A A K ! ! W W A A K H ! g v #.W A ",
"Q E K L H 7 j ~ W M / C W C K K W W R W ^ W W R / / W W W W W W A A A K K A W C W A W W ~ j h Z A Z ",
"F F Q Q b @ v L L W W W K ! A / K F R K E R R F C F F W W K F K L ! W W K K W / ! L F C K l v } A ! ",
"W _ F F N 5 b H C K / K K W K Z F Q Q L K L W W Q F W F C K / Z H A K / Q C F F F Q F F E m j S K ! ",
"F S F H d # j I ~ N C K K W Q L F F F F F K K H F F H H ~ L Z L Q F F W F K Q F F F Q F ' y u } M F ",
"_ F ] L i + 9 v Q L K L W H L Q Q L L Q L L L Q S L ` S L H S L F F H K Q L E E Q S Q G G z 2 F ~ ~ ",
"F W H j 1 2 : 9 c ` Q F H N N H F F F L K F S C H N H n H ` L N L ] / P Q L F Q F E F Q L 2 = y H L ",
"m M a j { 2.H 1 2 s v S ` U I I K V l g w 7 4 < 7 @ 2 2 9 7 9 b v e w i k v M M Q S F m w z L 5 h M ",
"< + # I q.-.H { i @ 2 8 2 5 8 2 4 u l x k a w 0 2 2 2 @ 2 X c N.} 1 7 =.0.#.M 4 8 w 4 = b (.:.P < 2 ",
"0 e 4 8 i 9 9 9 8   @ 2 = 5 5 y o.9.U.W.g.;./ M M b d w 2 6 { v.[ 9 w ~ Q j w 4 + . . 4 } ~ n j 1 < ",
"r.6.=.[ ` }  .-.-.} M 1 + 3 9 ~ G.U.B.b.B.H.b.0.8.<.<.+.u 2 S c i w 7 0 v K ~ ) / C v a b j j s i x ",
"T.c.F.R.L.).).H.~.'.P.K j # i 7.E.x.x.D.U.D.G.B.l.b.d.u.O.l 2 4 < z ] r.y.A.'.'._.N.8.<.;.:.8.a.a.N.",
"c.c.f.s.0.r.d.j.d.d.Z.,.l 1 d p.x.D.U.x.1.@...) R R F R / S y < z v.(.b.d.8.#.o.} / / E Q Q ] | =.=.",
">...T T ^ ) W m V o.^.j.X.i j =./.x.3.X.T V C Y ^ ^ E R Q Q u . N 2.O.K K A M T R R E R F F Z N H K ",
"B Y W W A K / / ^ C P w.6.v 7 6.z.&.Y C A K ^ ! C R E C G _ x . b L N K W K W W R W W R / W W W C K ",
"( ! T T K W W C R / W C } h i :.@.W C A ! K K K / W Q K L Q b $ b H K W N A ! W W R E R R R W W W W ",
"T B A T A W W W / R V K W x e ~ W T W T Z K W K R F F F R L F 2 d L K L K T T W W ^ ^ E W R R C W W ",
"W T ! W W K F C W V / Q Q q i / C Y W K K W W F W R / G F F S 5 x I S Z W ! T ( R R R R W W W K K K ",
"T A A L F K Q Q R F / L Q a s L W K K K K A K K W R R L K Q ~ 5 i L L K Z P W T R / / R R W W K K F ",
"K T K K A K K K F W R L Q w s H F / F F F L F Q Q / R R Q K K w t H H L A K W A R R / E F K W K K K ",
"W W W W W K K K F / R F G 4 c _ F Q F L Q Q F W F R R E Q G Q y 5 L Q H P T A K ^ W R R W W ^ W W W ",
"K K K K P P K K Q Q Q Q F @ c J F E L L L Q F Q E R ^ R F F L y 2 b L H P Z C ) W E R K W K F F W W ",
"W W F K K K W K F R L F L 2 c _ G F F S L F H Q R F Q E F Q ~ a X f ` S L K K C F F G Q Q F K Q F W ",
"/ W W L K K K K Q F L M F 2 y S L L J L L H J L F F Q K Q ` L t 3 9 b S L K / Q Q E F F F S H L F W ",
"F F F H K K K K F F _ L F 3 3 D U L I J H S S b S N K F F F c 2 o o y b P H Q Q Q F F G L ~ Q S W W ",
"/ / / / / ! ! W Q R _ U c = = 3 t 8 t 6 5 ; 5 < 2 2 7 7 9 8 5 @ d S c i 8 g M m M S S S F J Z n b v ",
"g k k h a e q 8 q q w u 4 o 8 $ - o - & - - 5 2 2 @ @ X @ + 2 t :.(.a.+.v 7 2 q F G S h 8 8 5 5 O O ",
"..../ Y M m k g g g g q w u 4 4 o 6 ; & 6 3 < 4 a g l x x a q 4 M F v N N a 1 A j.;.] q 2 2 < 2 5 d ",
"/.^.^.E.E.k.r.6.,.@.+.+.%.#.%.Q d ; O > o 5 N %.e.0.n.Z.J.b.6.*.R m a q 0 1 , e v Z S 4 4 2 2 w :.a.",
"r.r.d.f.g.j.d.d.d.6.6.d.u.b.].8.I i O : - H m.'.B.b.Z.N.F.Q./.'.~.j.h.6.0.2.;.W j 4 2 d S w @ $.j.J.",
"W W W C C K W W C K R R F ] 0._ H c : O i 7.Z.g.U.S.H.m.s.9.3.5.6.r.Z.m.P.P.`.6.` < ] a.L 8 y F / ) ",
"W W W W K K R F R W ^ W F W o.F H N $ + d v.U.z.U.s.>.[ ! ! ( ( C C R o.2.r.2.C L b :.| S 6 M ' C W ",
"C C F W W W W R / F K W / F F C Q N 2 $ d y.S.s...R T B A T T T R ( C C F W K F L F M ` b 8 S S W W ",
"Q Q W K G F K Q W F F R / R R / K b 5 $ a +.@.B Y Y ^ W P ! A ^ W ( W W W Q F H F L a S 9 i ` N Z K ",
"H K K L K K Q F F / W R W F W R L n 1 O i P C W ^ Y T T A A T T W Y W F F W C K L L d 2 2 a J J L K ",
"L F F K F F K K W F R F W W W F L D o = 6 N Q C ^ W K Z K T R W R W W W W F F L L L s . @ z ` S H K ",
"F Q L W Q L W W W W W R R W F F S D o - - b Q R R C A P P H W W W W F R W Q R Q F Q z 2 3 b I b Q W ",
"W K K K W F K K F W K K K K W F U c $ ; $ z U Q R F F H H H W W W ^ W F Q W L K S L x < 3 c J S R R ",
"K K K K K W K K F W K W W Q W K L p & - O d L F Q W K L L K K W R W R F K K F Q F Q c @ 2 S J Q W W ",
"W W W K W K W ! K K K K K Q Q H J r & ; O p Q F / Q F K K K W W R Q W K W F L Q F L b < q G F G W Y ",
"K A A A K K A K W W K K K W Q H J 6 & - & i Q R R R K H K W K W F W W K L W F Q L G S 2 8 S D S K W ",
"T A T ! K A A K K W K K K K K L n & - - - y K F W Y K K A K T W K K F K Q L G F F L G 2 3 S F L Q ~ ",
"T K T ! W W K F F K K K A H Q Q d X & ; & t F F ( W K W W W W W W K C C W L F F F S Q q 4 F L L Z Z ",
"L A Q F G F F E E G F Q E / ! v 5 5 : % * > H J C Q Q F Q W T T T W T W A C / H L K H w # v P Z P Z ",
"Q K Q F Q E E ' ' E E Q F K T k # $ : & * ; D I F W K F L ! A A T W ! ^ W A ^ W K K K 0 , j A Z Z Z "
};
