/* XPM */
static char *_749329927024095d105a86dba2f3822U1fWtsfJHeTLWhIj[] = {
/* columns rows colors chars-per-pixel */
"50 50 175 2 ",
"   c None",
".  c #010101",
"X  c #0C0101",
"o  c #05070B",
"O  c #030A0B",
"+  c #0B0B0B",
"@  c #060907",
"#  c #120202",
"$  c #1D0202",
"%  c #170B0B",
"&  c #1D0C0B",
"*  c #13100C",
"=  c #090917",
"-  c #061414",
";  c #0C1413",
":  c #0C1A1A",
">  c #141414",
",  c #141A1A",
"<  c #1A1A1A",
"1  c #161417",
"2  c #240202",
"3  c #2B0001",
"4  c #250B0B",
"5  c #340202",
"6  c #3D0000",
"7  c #2E1616",
"8  c #371615",
"9  c #272219",
"0  c #191A2C",
"q  c #171627",
"w  c #171D33",
"e  c #38182B",
"r  c #211E39",
"t  c #1D2323",
"y  c #222323",
"u  c #352E22",
"i  c #36332B",
"p  c #2F3636",
"a  c #393635",
"s  c #430000",
"d  c #4C0A0A",
"f  c #450608",
"g  c #510103",
"h  c #5A0103",
"j  c #550908",
"k  c #5B090A",
"l  c #491515",
"z  c #630000",
"x  c #6C0303",
"c  c #620F0E",
"v  c #6D0908",
"b  c #730000",
"n  c #750A0A",
"m  c #7B0C0C",
"M  c #790408",
"N  c #631111",
"B  c #681010",
"V  c #701515",
"C  c #621527",
"Z  c #483E3E",
"A  c #5A3333",
"S  c #523939",
"D  c #76393D",
"F  c #4A4332",
"G  c #5B4E3A",
"H  c #584B37",
"J  c #5F523D",
"K  c #62533D",
"L  c #1F1E42",
"P  c #201F40",
"I  c #152A4B",
"U  c #28294D",
"Y  c #252C52",
"T  c #322F53",
"R  c #2C345D",
"E  c #203054",
"W  c #37345C",
"Q  c #2D3762",
"!  c #3A3868",
"~  c #3C3976",
"^  c #422B4C",
"/  c #5D2C4F",
"(  c #3B4343",
")  c #4A4C4C",
"_  c gray28",
"`  c #49435E",
"'  c #4B5454",
"]  c #435252",
"[  c #565655",
"{  c #675740",
"}  c #655151",
"|  c #4E4A6B",
" . c #514F6E",
".. c #55536F",
"X. c #544E77",
"o. c #59577D",
"O. c #646263",
"+. c #6C6E6E",
"@. c #706F7E",
"#. c #797171",
"$. c #830404",
"%. c #8D0101",
"&. c #840B0B",
"*. c #950101",
"=. c #9B0202",
"-. c #9F0F0F",
";. c #871B1E",
":. c #A20000",
">. c #BF0101",
",. c #8C3838",
"<. c #933030",
"1. c #BA2626",
"2. c #D80000",
"3. c #C23A3A",
"4. c #D83131",
"5. c #E23A3A",
"6. c #A9594E",
"7. c #A05555",
"8. c #8E7979",
"9. c #927D7C",
"0. c #DA4C4C",
"q. c #C06A6A",
"w. c #D66B6B",
"e. c #C37474",
"r. c #D7777A",
"t. c #9B8670",
"y. c #CFA176",
"u. c #4F4C87",
"i. c #554F81",
"p. c #5B5985",
"a. c #595588",
"s. c #6E6C83",
"d. c #7E7793",
"f. c #8B8B8B",
"g. c #88869A",
"h. c #8D9B9B",
"j. c #889494",
"k. c #A48F8A",
"l. c #BA8E8E",
"z. c #BC9B82",
"x. c #B69E97",
"c. c #BEB084",
"v. c #BDA79B",
"b. c #8A8AA6",
"n. c #8C8CA8",
"m. c #9C9CA7",
"M. c #AF9DA4",
"N. c #A2A1A1",
"B. c #A4A2B2",
"V. c #AFB5B5",
"C. c #B5B5B3",
"Z. c #BBBBBA",
"A. c #DE8282",
"S. c #DE9393",
"D. c #EC8585",
"F. c #F08383",
"G. c #C2A681",
"H. c #C9A3A3",
"J. c #C1B4B4",
"K. c #E3A1A1",
"L. c #EFCD9E",
"P. c #E8C797",
"I. c #FFCD95",
"U. c #F7D39C",
"Y. c #FFDEA5",
"T. c #FFE6A9",
"R. c #BEC9C9",
"E. c #CACBC7",
"W. c #CFCFD4",
"Q. c #D4D4DA",
"!. c #F4D1D1",
"~. c #E0E0DE",
"^. c #DDDCE2",
"/. c #EDEDEC",
"(. c #FAFAF9",
/* pixels */
"                                                                                                    ",
"                                      @ . . % @ . .                                                 ",
"                                    @ < + @ > > . . . .                                             ",
"                                    + + . . . 1 1 . . .                                             ",
"                                  @ + . a _ y o < . . . .                                           ",
"                                  + + @ E.(.C., @ . . . .                                           ",
"                                  + + @ s.n.n.D 2 O . . .                                           ",
"                                    + . ;.z.6.r.a o H G .                                           ",
"                                  $ X & y.T.I.L.i . J K .                                           ",
"                                $ x =.j c.T.Y.U.u . . . 6 6                                         ",
"                                . $ z & F { J K * 9 G . :.2.g                                       ",
"                                . @ d 6 O o o + . > u . 3 s 3                                       ",
"                                  @ m c : < < < . . . . . .                                         ",
"                                  . b N : < < + . . . . . .                                         ",
"                                  . 5 n 4 + + . . . . . . . .                                       ",
"                                . . . 3 # . . . . . . . . . .                                       ",
"                                . . . z 3 . . . . . . @ . . . .                                     ",
"                                . @ 2 b 4 @ . . @ @ * < @ . . .                                     ",
"                              . . : m g ; , + + 1 < 1 1 < @ . . .                                   ",
"                              . @ : m c ; < < < < < + + < 1 . . . .                                 ",
"                              . . : n k O < < < < > . . 1 < * . . .                                 ",
"                            . . . , ;.,.] : - ; < y y . > < 1 . . . .                               ",
"                            . . ; j.w.7.R.V D ( @ ' l.3 ; < < + . . + .                             ",
"                            . o + h.F.s <.5.D.l.p t A 2 ; < < 1 . @ 1 @                             ",
"                            . > @ ( r.d =.0.A.S.' @ . . > < < < @ @ < * .                           ",
"                            @ > @ > } Z =.4.q.) 1 * . . . 1 < < , @ 1 < @                           ",
"                            y % @ < t < -.8.( . + 1 @ . . < < < < + < < % .                         ",
"                            @ . o y y > *.& @ + > < > . . + < > 1 < < < < o .                       ",
"                            . . @ 1 < % %.7 < , @ @ @ @ @ . < + . 1 < 1 @ . .                       ",
"                            . . @ < , n g m < < 1 . . } A . < + . @ * @ .                           ",
"                              @ ' > : &.s $.< < 1 y S =.>.# + ; . . .                               ",
"                              + e.#.; m C &.: > t C.!.r.1.X . @ .                                   ",
"                              . 3.J.: &./ k c : y [ h.K.4.8.; . . .                                 ",
"                              + H.N.+ M ^ 6 &.: > . 1 9.H.O.[ . . .                                 ",
"                              # 1.+.v j I d &.: < > . 1 t > + . . . $                               ",
"                              X j + n g E e v 8 1 < @ . @ > 1 @ . . 3                               ",
"                              . - @ n g R E h c : < < @ . . @ @ . . .                               ",
"                              . > O n g R U g c , < < < . . . . . . . .                             ",
"                              . 1 . b k Q T . $.l , , < + . . . . .                                 ",
"                                @ . 5 5 w q . %.l : 1 > + @ . . .                                   ",
"                                  q 0 ; * .   5 $ @ @ . .                                           ",
"                                    d.C.f.@       ..Z._ .                                           ",
"                                    B.(.Z.@       p.W.~.[                                           ",
"                                  p.Q./.C.@         g.^.g.@                                         ",
"                              G.X.~ n.E.O.q         o.p.~ r                                         ",
"                            P.L.k.u.i.m. .U .       ! i.a.! o                                       ",
"                            |  .| T U @.| r .       9.P.L.d.U                                       ",
"                              . 1 > . @ . .         t.v.v.M.T                                       ",
"                                                    = L L P q                                       ",
"                                                                                                    "
};
