/* XPM */
static char *_9666504cdfd4fc9e24c8617afe8aa50nHkN2xGNQKZD9kdA[] = {
/* columns rows colors chars-per-pixel */
"50 50 210 2 ",
"   c None",
".  c #010304",
"X  c #0A0A03",
"o  c #010608",
"O  c #04090B",
"+  c #080C0E",
"@  c #07060A",
"#  c #19060F",
"$  c #180503",
"%  c #051109",
"&  c #090E12",
"*  c #170914",
"=  c #0D1213",
"-  c #0D1219",
";  c #131315",
":  c #1A1416",
">  c #141718",
",  c #151A1B",
"<  c #1A1B1D",
"1  c #1D1918",
"2  c #11160B",
"3  c #2B1408",
"4  c #33190B",
"5  c #2B0414",
"6  c #240511",
"7  c #360618",
"8  c #241713",
"9  c #240609",
"0  c #1D2216",
"q  c #3D270A",
"w  c #22231E",
"e  c #1C1E21",
"r  c #161B22",
"t  c #1C2223",
"y  c #222324",
"u  c #2A2C2D",
"i  c #282B29",
"p  c #3A2E29",
"a  c #322726",
"s  c #2E2F30",
"d  c #323435",
"f  c #393335",
"g  c #35393A",
"h  c #393B3B",
"j  c #373637",
"k  c #2C322A",
"l  c #480808",
"z  c #4D0A1D",
"x  c #580A1E",
"c  c #461E0C",
"v  c #721B11",
"b  c #6D1212",
"n  c #5A270B",
"m  c #592011",
"M  c #422406",
"N  c #6D2D19",
"B  c #67231A",
"V  c #6F3018",
"C  c #703118",
"Z  c #733717",
"A  c #712E1A",
"S  c #4F0A27",
"D  c #540223",
"F  c #5B0424",
"G  c #5D0729",
"H  c #680428",
"J  c #7C042E",
"K  c #70002C",
"L  c #583525",
"P  c #453832",
"I  c #433722",
"U  c #682023",
"Y  c #6F4211",
"T  c #794216",
"R  c #616405",
"E  c #504138",
"W  c #43473B",
"Q  c #6C5639",
"!  c #6C4737",
"~  c #626D37",
"^  c #473F42",
"/  c #6E3C53",
"(  c #374641",
")  c #174B68",
"_  c #244E67",
"`  c #454646",
"'  c #474848",
"]  c #4B4C4B",
"[  c #484847",
"{  c #514E4C",
"}  c #564946",
"|  c #50504F",
" . c #515151",
".. c #5F5052",
"X. c #555A5A",
"o. c #4E5D5B",
"O. c #66514E",
"+. c #635859",
"@. c #727742",
"#. c #6A5F60",
"$. c #696365",
"%. c #746366",
"&. c #6B7876",
"*. c #7A7677",
"=. c #9D0C11",
"-. c #8D0B10",
";. c #A80D13",
":. c #B10D13",
">. c #97162A",
",. c #820530",
"<. c #960138",
"1. c #A7063A",
"2. c #AA1B2B",
"3. c #8A272B",
"4. c #D51A33",
"5. c #F41F39",
"6. c #D83926",
"7. c #DB2732",
"8. c #D62D29",
"9. c #E63A2A",
"0. c #F12939",
"q. c #E12835",
"w. c #845214",
"e. c #865813",
"r. c #AC5906",
"t. c #B0500A",
"y. c #947102",
"u. c #A17A11",
"i. c #CB5A0B",
"p. c #C8451A",
"a. c #DA4A1B",
"s. c #C95214",
"d. c #D35214",
"f. c #C86809",
"g. c #D26E0E",
"h. c #D07408",
"j. c #E67D11",
"k. c #DB4627",
"l. c #EE6123",
"z. c #C00243",
"x. c #D80349",
"c. c #D71653",
"v. c #E80B4B",
"b. c #F60C4E",
"n. c #EB1B41",
"m. c #F51746",
"M. c #E90251",
"N. c #F40155",
"B. c #FA0256",
"V. c #FF005B",
"C. c #FF0A53",
"Z. c #E8365C",
"A. c #F93B74",
"S. c #925A48",
"D. c #886B5B",
"F. c #A96C59",
"G. c #856062",
"H. c #88726F",
"J. c #8B6276",
"K. c #997A6F",
"L. c #E94165",
"P. c #9E8202",
"I. c #879209",
"U. c #A58A0A",
"Y. c #AD940D",
"T. c #BC8216",
"R. c #BFBB11",
"E. c #C89605",
"W. c #D98C0A",
"Q. c #DAA304",
"!. c #C7BE07",
"~. c #D6B906",
"^. c #E2BB03",
"/. c #E5B20A",
"(. c #CBC705",
"). c #CDDA00",
"_. c #D4D405",
"`. c #DBC600",
"'. c #F6D20D",
"]. c #D3E300",
"[. c #E3E803",
"{. c #EAF501",
"}. c #F3FF00",
"|. c #A4816C",
" X c #7B7E80",
".X c #E37EA5",
"XX c #99999B",
"oX c #87898A",
"OX c #B59698",
"+X c #AC8F8D",
"@X c #BABABD",
"#X c #CF9D94",
"$X c #D59F96",
"%X c #EC9893",
"&X c #D7A49B",
"*X c #C7ABA9",
"=X c #DBB0AD",
"-X c #D8A8A0",
";X c #E3B3AF",
":X c #E7BBB8",
">X c #A5AEC4",
",X c #BDC6DD",
"<X c #FED6D8",
"1X c #FFDADB",
"2X c #F2D3DB",
"3X c #EFC6C6",
"4X c #FFDDE2",
"5X c #FFE1E5",
"6X c #FFEAED",
"7X c #FFF3F7",
/* pixels */
"                                                                                                    ",
"                                      C     B C                                                     ",
"                                    V N   e.Y.Z                                                     ",
"                                  N T !._._.  U.B N C                                               ",
"                              N _.(.e.{.}.}.}.Y.T !.w.N                                             ",
"                            C Z e.[.[.}.}.}.}.{.{.U.                                                ",
"                            N !.w.Y ).].].].].].}.u.N                                               ",
"                            N R.@.e y k 0 2 0 1 I.(.w.A     o o o o                                 ",
"                              P  XXXXX@X$.+ h d & .     o o o     o o                               ",
"                              . ] *.X.&.` . . y } ; . o o             o o                           ",
"                                . . ..p . f O.OX&X8 . o                 o o                         ",
"                                o _ 1X*X)   <X:X$Xa .   o o o o                                     ",
"                                O >X4X2X,X3X3X#XF.a         o o o o                                 ",
"                                @ S.-X<X<X<X$XL $               o o o                               ",
"                                  8 =X-X:X;XL . .                   . o                             ",
"                                    ` :X&XL y y                       o o o                         ",
"                                      e : : ` y o + o                     o                         ",
"                                  o & O   . o O d ] , o                   o                         ",
"                                = ; h < h O - s ] ] ' + .                                           ",
"                              o h < j , d < | ] ] | ] t < >                                         ",
"                              o j , g , d , ] ] ] j ` { | ' <                                       ",
"                              o j : U 1 d r | | j O t ] ] ] h .                                     ",
"                              . g : =.: d O r r O . . r ] ] ` t                                     ",
"                            . i y -.;.- ~ U.y.P.n @   . < ] { d .                                   ",
"                            o h > :.;.r Q h./.^.i.4     + ` ] [ e                                   ",
"                            o h : =.9 - Q W.^.f.i.4     = ] ` ] u                                   ",
"                            d ' : -.; P E.~.t.E.R o     = d 1 u ` e                                 ",
"                        e t ] < . o O g W u . X %         O #.OXd t                                 ",
"                    f $.%.$ g , 5 3 7 4 7 3 3 7 #         + %.6XH.X                                 ",
"                  j 6X*X3.b t S x.a.m.a.7.h.Q.l.F         P 1X4X|.X                                 ",
"                  < OX7X%Xl . 2.C.7.>.f.Q.Q.`.j.l       . Q <X4X*Xp                                 ",
"                    r H.E . q r.9.M.6 k.^.W.4.L.J.<     . E 4X4X7X%.                                ",
"                          . >.0.n F <.x v Z..XJ.( -         +.+.+.u                                 ",
"                          M p.6.1.1.S .   / &.X.oXt                                                 ",
"                        S x.n.n.C.M.@     % G c.L.c.6                                               ",
"                        H 0.s.m.V.7         K 0./.'.q                                               ",
"                        v d.q.B.x.#         H 7.s.g.4.7                                             ",
"                      z b.B.B.B.7             ,.V.6.g.c.@                                           ",
"                      c 9.n.b.B.5             F N.N./.E.3                                           ",
"                      D m.p.n.N.7               H M.9.`.E.4                                         ",
"                      F V.V.V.V.7               . z.V.s.~.r.o                                       ",
"                      5 J J J J #                 F v.a.8.n                                         ",
"                      o o o o o                     z m D o                                         ",
"                        , h ,                         o . . o                                       ",
"                    o o 2 , d >                       o = h u .                                     ",
"                + 0 ` ' ` h ' ,                         o > - O @                                   ",
"                L +XI ' ] i @ o                         & h { +.h ;                                 ",
"                @ O o o o                               o X Q K.D.O.                                ",
"                                                          o o o @ o                                 ",
"                                                                                                    "
};
