/* XPM */
static char *_d8f8cac2af04c46e19c38a9eacfaf9ft7vPveCL7PhcUAbs[] = {
/* columns rows colors chars-per-pixel */
"50 50 210 2 ",
"   c None",
".  c #010304",
"X  c #0A0A03",
"o  c #010608",
"O  c #04090B",
"+  c #080C0E",
"@  c #07060A",
"#  c #19060F",
"$  c #180503",
"%  c #051109",
"&  c #090E12",
"*  c #170914",
"=  c #0D1213",
"-  c #0D1219",
";  c #131315",
":  c #1A1416",
">  c #141718",
",  c #151A1B",
"<  c #1A1B1D",
"1  c #1D1918",
"2  c #11160B",
"3  c #2B1408",
"4  c #33190B",
"5  c #2B0414",
"6  c #240511",
"7  c #360618",
"8  c #241713",
"9  c #240609",
"0  c #1D2216",
"q  c #3D270A",
"w  c #22231E",
"e  c #1C1E21",
"r  c #161B22",
"t  c #1C2223",
"y  c #222324",
"u  c #2A2C2D",
"i  c #282B29",
"p  c #3A2E29",
"a  c #322726",
"s  c #2E2F30",
"d  c #323435",
"f  c #393335",
"g  c #35393A",
"h  c #393B3B",
"j  c #373637",
"k  c #2C322A",
"l  c #480808",
"z  c #4D0A1D",
"x  c #580A1E",
"c  c #461E0C",
"v  c #721B11",
"b  c #6D1212",
"n  c #5A270B",
"m  c #592011",
"M  c #422406",
"N  c #6D2D19",
"B  c #67231A",
"V  c #6F3018",
"C  c #703118",
"Z  c #733717",
"A  c #712E1A",
"S  c #4F0A27",
"D  c #540223",
"F  c #5B0424",
"G  c #5D0729",
"H  c #680428",
"J  c #7C042E",
"K  c #70002C",
"L  c #583525",
"P  c #453832",
"I  c #433722",
"U  c #682023",
"Y  c #6F4211",
"T  c #794216",
"R  c #616405",
"E  c #504138",
"W  c #43473B",
"Q  c #6C5639",
"!  c #6C4737",
"~  c #626D37",
"^  c #473F42",
"/  c #6E3C53",
"(  c #374641",
")  c #174B68",
"_  c #244E67",
"`  c #454646",
"'  c #474848",
"]  c #4B4C4B",
"[  c #484847",
"{  c #514E4C",
"}  c #564946",
"|  c #50504F",
" . c #515151",
".. c #5F5052",
"X. c #555A5A",
"o. c #4E5D5B",
"O. c #66514E",
"+. c #635859",
"@. c #727742",
"#. c #6A5F60",
"$. c #696365",
"%. c #746366",
"&. c #6B7876",
"*. c #7A7677",
"=. c #9D0C11",
"-. c #8D0B10",
";. c #A80D13",
":. c #B10D13",
">. c #97162A",
",. c #820530",
"<. c #960138",
"1. c #A7063A",
"2. c #AA1B2B",
"3. c #8A272B",
"4. c #D51A33",
"5. c #F41F39",
"6. c #D83926",
"7. c #DB2732",
"8. c #D62D29",
"9. c #E63A2A",
"0. c #F12939",
"q. c #E12835",
"w. c #845214",
"e. c #865813",
"r. c #AC5906",
"t. c #B0500A",
"y. c #947102",
"u. c #A17A11",
"i. c #CB5A0B",
"p. c #C8451A",
"a. c #DA4A1B",
"s. c #C95214",
"d. c #D35214",
"f. c #C86809",
"g. c #D26E0E",
"h. c #D07408",
"j. c #E67D11",
"k. c #DB4627",
"l. c #EE6123",
"z. c #C00243",
"x. c #D80349",
"c. c #D71653",
"v. c #E80B4B",
"b. c #F60C4E",
"n. c #EB1B41",
"m. c #F51746",
"M. c #E90251",
"N. c #F40155",
"B. c #FA0256",
"V. c #FF005B",
"C. c #FF0A53",
"Z. c #E8365C",
"A. c #F93B74",
"S. c #925A48",
"D. c #886B5B",
"F. c #A96C59",
"G. c #856062",
"H. c #88726F",
"J. c #8B6276",
"K. c #997A6F",
"L. c #E94165",
"P. c #9E8202",
"I. c #879209",
"U. c #A58A0A",
"Y. c #AD940D",
"T. c #BC8216",
"R. c #BFBB11",
"E. c #C89605",
"W. c #D98C0A",
"Q. c #DAA304",
"!. c #C7BE07",
"~. c #D6B906",
"^. c #E2BB03",
"/. c #E5B20A",
"(. c #CBC705",
"). c #CDDA00",
"_. c #D4D405",
"`. c #DBC600",
"'. c #F6D20D",
"]. c #D3E300",
"[. c #E3E803",
"{. c #EAF501",
"}. c #F3FF00",
"|. c #A4816C",
" X c #7B7E80",
".X c #E37EA5",
"XX c #99999B",
"oX c #87898A",
"OX c #B59698",
"+X c #AC8F8D",
"@X c #BABABD",
"#X c #CF9D94",
"$X c #D59F96",
"%X c #EC9893",
"&X c #D7A49B",
"*X c #C7ABA9",
"=X c #DBB0AD",
"-X c #D8A8A0",
";X c #E3B3AF",
":X c #E7BBB8",
">X c #A5AEC4",
",X c #BDC6DD",
"<X c #FED6D8",
"1X c #FFDADB",
"2X c #F2D3DB",
"3X c #EFC6C6",
"4X c #FFDDE2",
"5X c #FFE1E5",
"6X c #FFEAED",
"7X c #FFF3F7",
/* pixels */
"                                                                                                    ",
"                                            C B     V                                               ",
"                                            Z Y.e.  A V                                             ",
"                                      C N B U.  _._.!.T N                                           ",
"                                    N w.!.T Y.}.}.}.}.e.(._.N                                       ",
"                                        U.{.{.}.}.}.}.[.[.e.Z C                                     ",
"                                      N u.}.].].].].].).Y w.!.N                                     ",
"                        o o o o     A w.(.I.1 0 2 0 k y r @.!.N                                     ",
"                      o o     o o o     . & d j & $.@XXXXX XP                                       ",
"                  o o             o o . ; } y . o ( &.X.*.] o                                       ",
"                o o                 o . 8 $XOXO.f . p ... .                                         ",
"                            o o o o   . a $X:X1X  ) *X1X_ o                                         ",
"                        o o o o         a F.#X3X3X,X2X4X>X+                                         ",
"                      o o o               $ L $X<X1X1X-XS.@                                         ",
"                    o o                   @ . L ;X:X-X=X8                                           ",
"                o o o                       y < L &X:X^                                             ",
"                o                     o + o y ` : : e                                               ",
"                o                   o < ] j O o o   o + O                                           ",
"                                  . + ' ] ] s ; O h < h ; =                                         ",
"                                > < t ' ] ] ] { < d , g 1 h o                                       ",
"                              < ' | ] ` j ] ] ] < d , d > g o                                       ",
"                            . h ] ] ] e O j  . .r d , U : g o                                       ",
"                            y ` ] ] < . o O r r o d 1 =.: g o                                       ",
"                          . d | ] e o   o n P.y.U.~ - ;.-.y i o                                     ",
"                          t [ ] ' +     4 i.^./.h.Q - ;.:.> h o                                     ",
"                          u ] ' ] =     4 i.f.`.Q.! - 9 =.1 h @                                     ",
"                        t ` i < j =     @ R E.t.~.T.E = -.: ` s                                     ",
"                        t d OX+.O         o X . k W g & . . < | e e                                 ",
"                        . H.6X%.@         # 7 3 3 7 4 4 3 5 , g $ G.+.j                             ",
"                        X |.4X1XP         F l.Q.f.q.k.m.a.x.S t b 3.*X6Xf                           ",
"                        p -X1X1XQ X       l j.^.~.Q.r.2.7.C.2.o l %X7XOX<                           ",
"                        %.7X5X1XE .     : J.L.4.W.^.k.# M.9.r.q X } *.1                             ",
"                        i +.+.+.        = ( J.%XZ.U G <.D n 0.>.o                                   ",
"                                        t oXo.&./   . D 1.1.6.p.M                                   ",
"                                      6 c.A.c.H %     @ M.C.n.n.v.D                                 ",
"                                      q '.Q.0.K         7 B.b.s.0.H                                 ",
"                                    7 4.f.f.7.G         # x.B.7.d.B                                 ",
"                                  # c.g.6.V.,.            7 N.B.B.b.S                               ",
"                                  4 E./.B.N.F             5 B.b.5.9.c                               ",
"                                4 E.^.6.M.H               7 B.n.p.n.D                               ",
"                              o r.~.s.B.z..               7 B.V.V.V.F                               ",
"                                n 8.a.M.H                 # J J J J 5                               ",
"                                o D m z                     o . o . o                               ",
"                              o o o .                         > h ,                                 ",
"                            . u h & o                       > d < = . @                             ",
"                          o + - < o                         , [ ( ` ` ` 0 X                         ",
"                        : h X.} h +                         @ O i [ ` I +XL                         ",
"                        ..D.K.Q X o                               @ o o + O                         ",
"                        o O o o o                                                                   ",
"                                                                                                    "
};
