/* XPM */
static char *_a391ad69089467c8825cf0c8cfffeb4fWmE80Uzkf0F8QSA[] = {
/* columns rows colors chars-per-pixel */
"50 50 235 2 ",
"   c #000006",
".  c #01020C",
"X  c #050511",
"o  c #090713",
"O  c #060914",
"+  c #0B0A16",
"@  c #070D18",
"#  c #0E0C18",
"$  c #100E17",
"%  c #110E1A",
"&  c #0D121B",
"*  c #14131D",
"=  c #18161E",
"-  c #22181E",
";  c #0F1421",
":  c #191621",
">  c #161821",
",  c #1C1A23",
"<  c #311B21",
"1  c #1E222B",
"2  c #09273A",
"3  c #172C35",
"4  c #17323C",
"5  c #272B2D",
"6  c #332F33",
"7  c #2C3333",
"8  c #41171A",
"9  c #5D1E1B",
"0  c #690705",
"q  c #750A06",
"w  c #79120C",
"e  c #59201E",
"r  c #462625",
"t  c #5D2523",
"y  c #5D2823",
"u  c #5B393A",
"i  c #642825",
"p  c #782A25",
"a  c #643B3B",
"s  c #723332",
"d  c #0C2742",
"f  c #0E2B43",
"g  c #112C45",
"h  c #142D49",
"j  c #0F3349",
"k  c #163347",
"l  c #16324B",
"z  c #1A354C",
"x  c #1C3953",
"c  c #1C3854",
"v  c #2A3142",
"b  c #233C53",
"n  c #203E59",
"m  c #443544",
"M  c #733F41",
"N  c #26435C",
"B  c #2A475D",
"V  c #354658",
"C  c #294864",
"Z  c #2E4C64",
"A  c #334D68",
"S  c #2D556F",
"D  c #34536C",
"F  c #39576A",
"G  c #3B556D",
"H  c #3A5874",
"J  c #3E5C7A",
"K  c #3D6177",
"L  c #3E617D",
"P  c #434946",
"I  c #4C554E",
"U  c #4D5157",
"Y  c #545B55",
"T  c #555A57",
"R  c #694144",
"E  c #734447",
"W  c #5C6755",
"Q  c #5A625B",
"!  c #666D5C",
"~  c #4B5967",
"^  c #445D74",
"/  c #435E7B",
"(  c #495E7E",
")  c #44627D",
"_  c #4A647C",
"`  c #4B697F",
"'  c #5C697D",
"]  c #666A66",
"[  c #6B6E6C",
"{  c #6C7866",
"}  c #6C736D",
"|  c #707476",
" . c #737974",
".. c #870B06",
"X. c #87110C",
"o. c #91150D",
"O. c #8A1C16",
"+. c #961A12",
"@. c #8D241C",
"#. c #99251D",
"$. c #A7281D",
"%. c #872C25",
"&. c #942922",
"*. c #9D2C24",
"=. c #88322C",
"-. c #96342B",
";. c #8B3935",
":. c #973A34",
">. c #A32D23",
",. c #A72F25",
"<. c #AA3126",
"1. c #A7342A",
"2. c #B43528",
"3. c #B53B2D",
"4. c #BA3D2E",
"5. c #A63A33",
"6. c #B33D34",
"7. c #BC3E31",
"8. c #C13F30",
"9. c #984239",
"0. c #BC402F",
"q. c #BE4132",
"w. c #B7483C",
"e. c #C1402F",
"r. c #C24434",
"t. c #C94434",
"y. c #C34539",
"u. c #C6483A",
"i. c #CB4B3B",
"p. c #D24B3A",
"a. c #D8513F",
"s. c #864444",
"d. c #AB5345",
"f. c #B5645C",
"g. c #8C7079",
"h. c #9D777C",
"j. c #B0706B",
"k. c #A37A7C",
"l. c #DA5242",
"z. c #DB5B49",
"x. c #CA6253",
"c. c #E0614E",
"v. c #E46756",
"b. c #D2776A",
"n. c #E87466",
"m. c #E67768",
"M. c #76836E",
"N. c #758473",
"B. c #7A8576",
"V. c #7C8A77",
"C. c #7D8B7A",
"Z. c #808D77",
"A. c #848C7E",
"S. c #83927E",
"D. c #BA877E",
"F. c #3D6381",
"G. c #425F83",
"H. c #4F5F81",
"J. c #446383",
"K. c #4A6482",
"L. c #4D6984",
"P. c #456788",
"I. c #4C6D8B",
"U. c #526B84",
"Y. c #566688",
"T. c #516E8A",
"R. c #56738B",
"E. c #4D7090",
"W. c #577897",
"Q. c #5D7A95",
"!. c #66778B",
"~. c #737588",
"^. c #76788D",
"/. c #617C97",
"(. c #5B7DA0",
"). c #877C89",
"_. c #987C85",
"`. c #A17B81",
"'. c #5F809F",
"]. c #778687",
"[. c #69849A",
"{. c #7D929F",
"}. c #6987A5",
"|. c #718FAB",
" X c #7391AE",
".X c #6F91B0",
"XX c #7594B3",
"oX c #7998B5",
"OX c #7B9BBA",
"+X c #7D9EC1",
"@X c #7FA2C8",
"#X c #868A88",
"$X c #899483",
"%X c #8A9787",
"&X c #959C8B",
"*X c #918D93",
"=X c #899897",
"-X c #AD868C",
";X c #B5928E",
":X c #92A192",
">X c #94A293",
",X c #9EA996",
"<X c #98A698",
"1X c #9BAA9D",
"2X c #BCA28E",
"3X c #A1AD98",
"4X c #A6B39D",
"5X c #A9B69F",
"6X c #879AA1",
"7X c #809FBB",
"8X c #9CAAA7",
"9X c #83A2BC",
"0X c #A7ABAF",
"qX c #A5B2A4",
"wX c #A9B5A2",
"eX c #ACBAA3",
"rX c #B1BDA6",
"tX c #B2BFAA",
"yX c #B7B6BA",
"uX c #C79488",
"iX c #C59BA1",
"pX c #B4C1AA",
"aX c #B5C3AA",
"sX c #BCC6B4",
"dX c #C1CCBA",
"fX c #C5D1BE",
"gX c #84A5C3",
"hX c #87A8C7",
"jX c #85A9C9",
"kX c #8BABCA",
"lX c #93AFCA",
"zX c #C6C4C6",
"xX c #CBD5C4",
"cX c #ECF1F4",
"vX c #F8FDFF",
/* pixels */
"A D A V z 2 g f x J.E.I.E.Q.}.E.E.E.E.W.(.W.W.E.J.) J K / J H D Z C n n n n c c l h h c f g f x H A ",
"_ _ ` / F k f z R.XXOXkXkXkX@XkX@XjX@X@XjXjXjXjX9XOXXX|.|.}.}.}.|.|. X X|.}.}.[.Q./.Q.(.) k l L.XXXX",
"( / ) _ _ x f Z oXlXgXXX.X'.(.}.OX+X@XkXgXOXOXOXOX.X}.Q.E.P.L.P.T.Q.}. XOXOX9X9XgXgXgXkXoXn z [.hXkX",
"J.( ^ ^ ` k j L.gX9X}.) L H J J F.E.'.'.W.W.W.T.Q.8X8X{.=X=X1X:X[.` ` K K J ) J J.I.Y./.[.B Z 9X7XgX",
"H._ K./ _ 2 x [.kX[.G.J.J.I.R.[.I.T.=X8XqXqXsX%XB.pXtXtXeXeXtXpX,X{ qX6X6X=XR.` / L ) J J.N J OXXX.X",
"/ / / / ) 4 B Q.}.( H P.T.qXxXsXpXW qXaXtXpXpX%XC.eX5XeXwXwXwXeX:X{ eXpXpXsX,X].=XR.) J J.C D Q.P.G.",
"K.J._ _ ` b A ` _ ^ L._ {.sX5XpXpX{ C.pXwXeXrX%XZ.rXeXeXeXeX4X5X%XM.eXeXeXqX! ,XdXtX=XI.I.Z C / J J ",
"/ ( ).uXb.b.j.j.k.*X^.`  XpX5X5XpX%X{ eXeXeXrX%XV.rXeXeXeXeXeX3XV.N.5XeXeXV.{ eXeXtXtXK.) Z D T.L P.",
"/ [.c.t.3.<.0.2.2.r.q.f.D.2XrXpXeX4X! 4XrXrXaXS.M.pX5XrXrXpXpXeXM.&XpXpX3XW %XeXeXeXwXU.H.F A ^ ) L.",
"/ ).a.2.0.3.0.0.0.t.0.0.e.e.x.uXeXpXN.S.rX3XB.P 7 I I I I I I I 7 ! %X,XS.S.eXeXeXwX,X_ Y.b b R.H J ",
"L.h.p.2.0.0.0.0.r.r.0.0.r.3.4.u.b.&XP 5 P =     .     .           . @ = 7 3XpX5XeXeX<XU.G.A g ( L.L.",
"J k.a.3.0.0.q.q.t.t.0.e.e.0.0.q.t.i   .   . . X X X . X X X X X X . . .   P ,X3X&X&X].K.H.g 2 b ) J.",
"D h.a.4.4.4.u.9.p =.:.4.r.r.r.q.t.p . . X X X X X X X X X X . X X X X X .   Y pXsXxX<XH z Z _ k C G ",
"d g.a.2.4.4.q.< > 1 - < r s q.0.e.p . . X X X X X X X X X X X X X X X X X   ] fXsXpX8Xd F lX[.` g g ",
"z k.a.3.4.4.4.u tXU ] U 5 6 1.4.t.p . O X X X X X X X O O X X X X X . O O . ] pX5XeX>Xf R.U.F Z d 2 ",
"XXiXa.2.0.4.4.u vX} zX#X .} -.0.r.%.. O O X X X X X X X X X X X X o o X . . ] pXeXeX1XN F Z Z B N Z ",
"gXiXl.4.4.4.0.u cX[ yX#X .} -.e.r.p . O o o o o o o o o o o o o o o o o o . } pX5X5XwX}./.}. XoX9X+X",
"@XiXl.4.3.0.4.u cX| yX#X} ] -.t.w.m X o o o o o o o o o o o o o o o o o o . } pX5XrX8XL.K.L.T.R.Q.[.",
"(.-Xl.0.0.4.0.u cX[ yX#X{ ] -.t.9.v o + o + + o + + + + + + + o + o + + + . } pXeXeX<XK.) / / J ) ) ",
"F.-Xl.q.3.q.0.a cX| yX*X} } -.p.;.1 + O + + + + + o + O + O + + + + o + o X } pXeXeX>XK.K.J.) ) G.L ",
"P.-Xl.7.4.4.4.a ^.G ' ~ ~ F 5.p.;.& + o + + o + + + + + + + o + + + o + + o  .pXwX5X:XK./ G.J.J.J.G.",
"J.-Xl.3.7.7.r.9.a M R R M E w.y.=.& + + + + # o + + + + + + + + $ + + + + . M.pXeXeX8XK.J.G./ J J.J.",
"J.-Xl.3.7.7.y.8.8.y.t.r.t.u.l.y.6.8 o + # # # # # + + # + + + # + + # + + o M.pXeXeX1XK.J.J.J.J.) ) ",
"G.`.v.y.7.7.7.7.7.y.8.4.3.3.1.3.4.t O $ + # # # # $ # # * # # # # # # # + o B.pXeX5X1XK.G.J.J./ ) / ",
"J _.v.6.*.>.>.1.<.<.<.1.,.5.,.5.5.9 O # # # # # # # # # # # # # $ # # + $ o B.pXeXwX1XJ.J.) J.J.) ) ",
"J.k.n.6.:.:.,.,.s.*.5.s.>.s.=.;.-.9 O # # # # # # # # # # # # # # + # # # o B.pXeXeX1XH.J.J.J.J.) ) ",
"G.h.n.6.;.u *.*.s &.&.p +.%.&.*.*.9 + # # # $ % # # % # # # # # # % # # # + A.tXeXeX1XK.) ) ) J J.P.",
"J.h.n.5.O.@.*.&.O.O.O.O.O.w q 0 ..e # % % % $ $ $ % % % % % % # % % % % # + A.pXeXeX1XK.J.( ) _ G.G.",
"P._.n.&.w w q q q q X.X.o.o.+.,.2.t + % % % * $ % % % % % % % % $ & % % $ # A.rXeX5X1X) ( ^ ^ ) ) G.",
"( _.l.@.X.o.+.+.$.2.8.t.y.r.t.r.t.t @ % % * $ * * $ * % % * * % * $ * % $ $ A.tX5XeX1X( _ U._ ) J.K.",
"J._.l.t.q.8.q.q.q.u.i.y.u.7.7.7.t.t @ * $ % * % % * % * % * % % $ * * $ * + A.pXrX5X<X^ ^ ^ ) F F F ",
"C ).l.q.q.7.7.q.4.r.u.q.y.q.7.4.t.i @ * * * % * * % % * * * % * * * * * $ $ A.tX5XeX=XC z k k 4 2 2 ",
"E.*Xl.7.q.4.q.q.7.q.y.r.q.q.7.q.t.y & * % * * * * * * * * * * * * * * * * $ S.pXeXeX>Xx f g f g 4 N ",
"kXyXl.7.q.7.q.q.7.y.q.r.y.q.4.q.t.t & > * : : * * * * * > * * * * * * * * $ A.tXeX5X=Xk h f g c [.7X",
".X0Xl.7.q.4.7.7.3.r.q.q.r.q.7.q.t.t & * * * * * * = * : * = = * , * = * * * A.pXeXeX| B ^ x d /.OXhX",
"G.*Xz.7.7.7.r.7.7.q.r.q.q.q.7.q.y.i ; : > > : = : * : = = = > * * * : : > # { ,X&X%X[.oX_ z b ^ P.I.",
"G.).l.8.7.7.u.y.4.q.r.q.r.q.q.t.6.U , > * : : : : * * * , * * , * , = = > * A.<X<X3X8X!.^ z G U.G.G.",
"G.~.z.7.4.7.q.q.4.r.q.0.u.q.q.t.;.V , > , : : : > , > , > , : > , > > * = , qXfXsXpXeX!.G z ) ^ P.J.",
"H.~.l.4.4.7.7.y.4.q.u.4.u.r.q.t.5.6 > > : , , : , = , * , , : = : : , , = , $XeXeXeX3X_ 4 N ` ^ K ) ",
"/ ~.z.2.7.4.q.q.4.q.q.4.u.u.r.q.6.< * , , , , , , , , , , : , , , , = , , = $XeXqX4X>Xb 4 N _ _ ) ) ",
"G.~.z.7.7.7.y.r.0.q.y.y.7.2.2.5.:.8 > , , , , , , , , , , , , , , , , , , * ] C.M.N.].~ V A ` ^ / ) ",
"( !.c.7.3.7.r.u.q.u.7.3.<.:.1.;.=.t > , , , , , , , , , 1 , , , , , 1 , = 5 ,XwXwXfXsXsX=XF ` G ) J.",
") !.z.6.4.r.q.6.2.>.1.:.<.M =.>.>.a > , , , , , 1 - , - , , , , , , , - = P tXtXpXeXeXrX$XG _ _ P.G.",
"/ !.c.l.7.3.>.>.-.>.:.E >.>.&.X...u ; * , : , : : , : , , , : > : , * , * P eXeXeXeXeX4X#XF _ _ G.J.",
"J.!.n.5.*.*.>.*.R &.*.&.+.....+.d.! Y Q Q Q Q Q Q T Q Q T Q Q Y T T T T I Y 4XeXeXeXeX5X$X^ / ( G.G.",
"J.!.n.1.;.M #.*.&.*.O.....&.j.;X>XN.N.V.V.C.C.C.#XC.C.A.V.V.C.B.C.C.N.N.N.} <X3X4X,X<X:X].^ ^ ( J.J.",
"J.!.n.5.=.p >.#.@.X.q +.j.~.L.U.~ 4 4 4 4 N _ ( K.J.) ) ) ) P.J.) _ ) ) _ K.( U.U.( ( k h ^ ^ _ P.` ",
"F.!.n.5.O.O.w q ..>.f.).J K ` L.V 2 2 4 3 x G.G.P.P.) ) J.J.G.P.) / J / K.K./ / ^ / K.c h ^ _ _ K K ",
") Y.m.%.0 q o.3.j.~.( G.G.J.P.S j k 3 3 3 5 ^ _ J P._ ( K.J.L F.F.P.F.J.G.J P.( J.) ) x 2 S K K ` K ",
") Y.m.#.+.1.).~.Y.K.H.H./ J.J.C f 2 3 3 3 3 ~ ` J P.) / _ J.L F.J.P.J.F.J J.J.J.) ) ) x 2 Z L K K K "
};
