/* XPM */
static char *_051caf82e23410f875b50d4fdfc246aNwO3ZiN1XyEb9PAw[] = {
/* columns rows colors chars-per-pixel */
"50 50 196 2 ",
"   c #4D312C",
".  c #59382F",
"X  c #493330",
"o  c #553732",
"O  c #593732",
"+  c #563A33",
"@  c #5C3C34",
"#  c #5C3D39",
"$  c #623631",
"%  c #633D34",
"&  c #683E35",
"*  c #653E38",
"=  c #6A3E39",
"-  c #5C4137",
";  c #5D413A",
":  c #644136",
">  c #694236",
",  c #64433A",
"<  c #6C453A",
"1  c #664A3D",
"2  c #6E493E",
"3  c #72463A",
"4  c #744A3C",
"5  c #7B4C3D",
"6  c #7E513F",
"7  c #654B41",
"8  c #6B4D41",
"9  c #734E41",
"0  c #7E4E40",
"q  c #675045",
"w  c #6C5144",
"e  c #6D5548",
"r  c #755345",
"t  c #7B5343",
"y  c #735548",
"u  c #725A4A",
"i  c #765F51",
"p  c #7A5F52",
"a  c #7B604F",
"s  c #776053",
"d  c #7C6354",
"f  c #834E3D",
"g  c #884E3D",
"h  c #85503F",
"j  c #8D523F",
"k  c #92533F",
"l  c #824F40",
"z  c #855342",
"x  c #8C5444",
"c  c #885946",
"v  c #845C4A",
"b  c #8A5D4B",
"n  c #925644",
"m  c #945946",
"M  c #995B46",
"N  c #965B49",
"B  c #995C4A",
"V  c #81614E",
"C  c #95614B",
"Z  c #9B624C",
"A  c #846452",
"S  c #846458",
"D  c #856B5B",
"F  c #8B6B5B",
"G  c #916351",
"H  c #9C6551",
"J  c #946B54",
"K  c #9B6D56",
"L  c #966E5C",
"P  c #986B58",
"I  c #8B715E",
"U  c #97715A",
"Y  c #9D715A",
"T  c #A1644E",
"R  c #A26651",
"E  c #A56B53",
"W  c #A96E56",
"Q  c #A56F59",
"!  c #AB6F58",
"~  c #A57156",
"^  c #AA7056",
"/  c #A4745B",
"(  c #AD745A",
")  c #A4795D",
"_  c #AC785C",
"`  c #B1755C",
"'  c #B47B5E",
"]  c #8D7364",
"[  c #8F7964",
"{  c #927764",
"}  c #967D64",
"|  c #947C6A",
" . c #A67A61",
".. c #A97C62",
"X. c #B67D61",
"o. c #B87F61",
"O. c #96816E",
"+. c #9B836D",
"@. c #998471",
"#. c #AD8264",
"$. c #AB856C",
"%. c #AB8A6E",
"&. c #B58465",
"*. c #BB8264",
"=. c #B78469",
"-. c #BE8669",
";. c #BD8A6A",
":. c #BE936E",
">. c #A58B75",
",. c #AB8D74",
"<. c #AD9177",
"1. c #AC927A",
"2. c #BD9575",
"3. c #B2957D",
"4. c #C18767",
"5. c #C08867",
"6. c #C18769",
"7. c #C38B6B",
"8. c #CA8F6E",
"9. c #C5916D",
"0. c #CA926E",
"q. c #CC986E",
"w. c #C59472",
"e. c #CC9471",
"r. c #CF9973",
"t. c #CD9D78",
"y. c #D19672",
"u. c #D39C75",
"i. c #D59D78",
"p. c #D99F79",
"a. c #C5A17E",
"s. c #D6A177",
"d. c #D8A377",
"f. c #D7A17A",
"g. c #DBA67B",
"h. c #DCA87C",
"j. c #E1AA7E",
"k. c #AB9682",
"l. c #B39B84",
"z. c #BA9E82",
"x. c #B6A185",
"c. c #BEA184",
"v. c #C6AB8D",
"b. c #CBAC8B",
"n. c #D1A480",
"m. c #DAA682",
"M. c #DDAA83",
"N. c #DCAE8A",
"B. c #DDB18A",
"V. c #CBAC90",
"C. c #CCB295",
"Z. c #DAB793",
"A. c #D6B995",
"S. c #D4B799",
"D. c #D6B99B",
"F. c #DBBD9C",
"G. c #E3AD82",
"H. c #E0AF89",
"J. c #E5B186",
"K. c #E3B48C",
"L. c #E8B68A",
"P. c #EEB98A",
"I. c #E4B691",
"U. c #E6BA92",
"Y. c #E4BA94",
"T. c #EABC93",
"R. c #E8BD96",
"E. c #EBBE99",
"W. c #F0BE90",
"Q. c #D9BDA0",
"!. c #ECC197",
"~. c #E3C39D",
"^. c #E9C19A",
"/. c #E9C29C",
"(. c #EDC49D",
"). c #F3C69E",
"_. c #F0C99D",
"`. c #DCC2A3",
"'. c #E3C7A4",
"]. c #EAC5A4",
"[. c #EDCBA4",
"{. c #E6C9A9",
"}. c #ECCCA9",
"|. c #F1C6A3",
" X c #F2CCA3",
".X c #F3CFA9",
"XX c #EED0AF",
"oX c #F2D1A7",
"OX c #F4D3AA",
"+X c #F9D6AA",
"@X c #FDD9AE",
"#X c #F3D6B4",
"$X c #F6D9B6",
"%X c #FADAB3",
"&X c #FDDDBA",
"*X c #FEE1BA",
/* pixels */
"c.&X.X^././.^./.].^.R.E.Y.K.K.J.G.M.h.h.s.&., 1.*X$X.XE.R.Y.Y.T.U.K.K.B.J.#.O d }.#X(.I.N.M.M.f.w.b ",
"S..XM.g.g.g.h.h.g.h.g.h.h.h.h.g.g.g.h.h.i.&.1 1.&XE.m.g.d.h.d.g.g.g.g.h.j.&.@ D XX!.s.u.i.i.i.y.0.~ ",
"F.U.d.g.g.g.h.g.g.g.g.h.h.h.g.g.g.h.h.g.i.&.< l.[.h.d.d.h.g.h.h.h.h.g.h.G...O { [.f.y.u.i.u.9.*.o.~ ",
"Z.G.d.h.h.h.g.h.g.h.h.h.h.h.h.g.g.g.g.g.i.&.1 k.T.g.h.h.g.g.g.g.g.g.g.h.j./ @ +./.u.u.u.u.9.' _ ' ~ ",
"n.h.h.h.h.g.g.h.h.h.h.h.h.h.h.g.g.g.h.h.d.&.8 1.K.g.h.h.h.h.g.g.g.g.g.h.d.J # 1.R.r.u.u.t.*.' *.' / ",
"t.h.h.g.g.g.h.h.h.h.g.u.f.g.h.h.g.h.g.g.d.=.w ,.J.g.g.h.h.h.h.g.h.h.h.g.w.G - l.K.r.u.u.y.*.` ' *.( ",
"t.G.f.r.d.h.g.g.g.h.i.q.e.y.g.h.h.h.g.h.d.=.e ,.J.h.h.g.g.h.h.h.h.g.h.u.6.b , v.K.u.u.u.y.*.' *.' N ",
"w.j.t.r.h.g.t.r.g.h.y.0.0.e.d.M.h.h.h.h.f.=.w %.j.g.h.h.h.h.h.g.h.M.g.7.*.c , S.K.u.s.s.i.-.*.` T h ",
"w.j.e.i.g.g.e.0.y.y.0.q.e.e.y.h.h.h.h.h.y.=.w $.j.g.g.g.g.g.g.h.h.m.p.4.o.t 7 '.K.e.e.y.i.7.o.^ m j ",
"w.j.r.d.h.d.e.8.8.0.0.0.e.e.r.u.g.M.g.y.r.;.8 #.J.h.g.h.h.h.h.h.h.h.p.4.' 4 e {.U.9.o.7.i.e.o.R m z ",
";.i.u.g.h.i.q.e.q.0.e.0.e.8.e.e.e.u.e.9.e.&.1 ) h.h.h.h.g.h.h.h.h.G.f.6.( 3 u }.Y.7.' o.t.e.X.W m l ",
"#.r.e.s.s.e.e.0.0.e.e.y.7.W W 7.e.e.q.e.e.Q - P q.h.h.h.h.g.e.7.e.d.t.-./ < p }.Y.6.' ' 7.7.o._ B g ",
"..y.e.e.q.0.' R X.e.y.7.! n x ! 9.y.r.q.o.z # J ;.y.h.g.h.u.*.o.-.7.7.*.W < s {.H.6.X.X.o.o.' X.R z ",
"..y.q.e.y.-.Z x N W ..R m n n n W ;.6.( N 0 - K *.-.f.G.h.7.o.*.o.o.o.-.W 4 w Z.m.-.` X.X.' o.o.R j ",
" .i.y.0.*.R x n x n n n n n n x n Z Z n n 0 - K *.*.8.g.i.-.&.o.o.=.o.=.` 5 : w.y.o.X.X.o.X.( W B g ",
"J 8.4.` T m M M M N m M M M M N N n x n N 0 @ Y *.*.o.6.6.o.*.o.o.*.*.*.X.z + Q 6.X.o.X.o.( N n m j ",
"9 B n z l x x x x x x x c x x x n n m B N < - Y -.o.o.o.o.o.=.o.o.o.o.=.X.x @ r ( ( ( ( ! Z m m M 5 ",
"@ o @ @ @ @ - - # # # # @ @ % & & > < 0 9 : , / -.*.o.o.o.o.o.o.&.*.*.-.X.N : : x Z M N N n n x z % ",
"8 D @.@.@.+.| | { [ [ { ] D d s s s u , : & : H o.o.-.o.o.o.-.o.*.*.*.-.' N < # 5 m m x 0 = * % @ $ ",
"| #X$XOX[.[.[.(.].].].].{.{.'.`.D.V.a.U @ $ o 2 Z ` X.o.-.o.-.o.*.*.*.*.! m 4 @ 2 N c 3 o : i d 1 & ",
"v.@X!.K.J.J.J.J.G.K.L.L.!.).).)._.W.P.U + S I ; = x R ` o.o.-.o.&.*.*.` B m 5 % % 4 @ + a 3.Z.K.$.: ",
"b.J.g.g.g.s.f.d.g.s.d.s.d.h.h.h.h.j.#.1 O.Q.~.,.q $ l N ! X.X.Q E E E Z k n t , %   - } F._.P.j.g.4 ",
"w.j.h.g.h.h.h.h.h.h.h.j.h.d.u.y.p.&.u @.}.).L.P.2.8 O 9 n B N n n n n n n m 5 : % < ,.}._.m.y.y.f.v ",
";.M.f.e.u.h.h.g.g.g.h.h.g.t.9.-.~ a 1.OXT.d.s.j.J.:.8 # 2 x n n m x n n m n > . y z.+X_.i.y.u.i.f.A ",
"#.t.7.9.u.h.d.e.e.f.h.h.t.4.X.c u x.$X!.g.d.g.g.g.G.w.r + 8 x M m x M m c : + V b.%X(.s.y.u.u.i.y.v ",
"K 9.;.e.g.f.8.7.e.g.h.i.4.W 5 8 x.#X!.g.d.g.g.g.g.G.G.=.9 + < n m M N h : - [ F.%X(.f.u.u.u.i.u.7.t ",
"c *.9.0.0.' ( 4.e.u.y.7.R 4 - k.#XT.d.g.g.g.g.g.m.g.i.7...9 o 3 x n 5 o 7 <.oX%X_.g.e.y.u.i.y.7.X.t ",
"4 R 7.7.( n E 7.7.8.7.E 3 o O.#X!.d.d.h.g.g.h.h.y.7.o.X.-.Q < @ < > o a b.@X+X_.M.y.t.u.i.i.7.X.o.v ",
"5 n ` #.m B ;.0.7.5.Q 2 o 1 F._.g.g.h.h.h.h.h.s.*._ ` o.o.` l % * # ] ~.@X+X!.h.y.u.u.i.i.q.' ' o.b ",
"4 M B M x ! 5.*...C > @ % 8 a.j.h.g.g.h.h.h.h.y.' ' o.o.` Z 5 @ 9 >.'.+X_.Y.m.u.y.i.u.u.u.*.' X.*.c ",
"4 M n n n Z T M 0 O 7 r > & V u.j.y.7.q.g.h.g.8.X.X.o.( Z 0 O 8 z.OX).M.m.y.q.u.u.u.u.u.e.o.' ' ' 6 ",
"2 M m n n n j 3 # p c.b.D & % A 7.4.' #.7.u.t.*.X.X.W m 4 o u b.+XU.y.y.i.y.u.u.u.u.u.i.q.' *.' ` 5 ",
"< n N N m h % 1 @.{.|.T.N.J : @ 8 P o.*.' o.o.o.` R x < - a A.@XB.q.u.u.i.u.u.i.i.u.i.i.e.' ' o.` 5 ",
", x N z < + d C.*XOXi.y.i.i.U : $ * b _ ' ' ` ! B z : @ D ~.@X Xh.u.p.u.u.i.u.y.i.i.u.u.e.X.o.o.^ f ",
", < 3 @ q 1.XX&X[.m.y.i.u.i.f./ < * % 2 N R R n 0 - o X I b.a.b.U.!.!.M.i.i.e.-.e.i.i.i.e.' ' ' ( f ",
"2 @ @ ] D.OX|.I.m.y.i.i.i.u.f.f. .8 * * , z x 4 @ + q u a O.l.S.[.oXOX(.d.u.0.' o.y.i.i.e.o.' o.` j ",
"= 9 k.}.).m.i.y.u.u.s.u.i.u.u.s.g..., = * = > @ , +.F.oX[.^.Y.U.K.K.I.J.f.u.e.o.o.q.s.i.e.o.o.o.( h ",
"& ,.$XI.u.y.i.u.u.u.i.u.i.u.i.i.p.i./ > = 8 * 8 2.OXOX_.R.h.y.i.u.u.y.u.i.t.7.' X.7.i.i.e.o.' o.( h ",
"r D.E.u.u.i.u.u.u.s.i.u.u.u.u.u.u.p.i.~ * & < z.%XoX XB.r.u.u.y.9.7.7.7.6.-.o.' ` 7.f.f.9.' X.o.^ h ",
"F Y.i.u.i.i.u.u.u.u.i.i.s.i.s.u.u.u.i.y.G @ , v.@XoXoXB.q.y.i.9.' ' ' ' ' ' ' X.' -.i.y.*.' X.o.W g ",
"L m.i.y.i.y.y.i.u.u.i.u.8.8.e.i.i.y.i.y.*.t O S ^.+X XR.u.u.i.e.*.' ' ' ' ' ' ' ' o.*.*.' ' o.o.E f ",
"P d.i.i.y.i.i.i.u.s.y.7.-.-.6.w.i.i.i.r.7.( 3 o I {.+X[.d.y.u.y.y.5.*.' ' *.' ' o.' ' ' *.' ' ' Z f ",
"/ g.u.e.7.e.e.t.u.0.7.4.6.7.6.7.e.i.p.e.6.-.N > + } .X.Xm.t.u.i.i.i.q.7.*.' ' *.' ' o.' ' ' *.` B 5 ",
" .p.9.7.5.-.6.7.7.7.4.4.-.X.X.6.7.7.e.7.-.7._ x * * c. Xi.u.u.i.u.q.9.*.*.' ' *.o.' ' o.*.*.*.R n 5 ",
"Y e.6.4.-.6.6.6.6.7.7.-.( n N W *.7.5.-.-.7.4.T l . p N.p.y.e.6.*.*.' *.*.' *.*.' ' &.*.*.' W k n 3 ",
"P 7.6.6.7.7.-.( ( =.7.6.E x x x Z ' 7.7.7.7.6.T m 2 + ..p.4.X.X.o.o.o.' _ ` ` ` ' ' ` ' E Z m n n < ",
"P 8.6.-.=.X.E n n Z ( 6.-.R M n x B E ( -.o.~ M m c - r -.*.&.o.` W Z Z N N Z Z Z Z C N m m m k m : ",
"G X.E Z H N n n n x N W o.4.X.N n n x N Z B n n n M 5 + C o.( R B N m n n n n n n m n m x x m m m % ",
"l B m n n n m m n n n m Z ^ W M n m m n n n n m m M l @ , v B B B N M M M M M M m M M M B B M M l o ",
"& f g j k k j k n k k n n k k k k k k k j k k x j j 3 $ % O & 3 0 l l x x l x l f 5 5 3 3 5 5 5 .   "
};
